<svg width="98" height="75" viewBox="0 0 98 75" fill="none" xmlns="http://www.w3.org/2000/svg">
<path d="M94.5351 64.395L74.3541 74.1145C73.2141 74.6625 71.9321 74.843 70.6851 74.6311C69.4381 74.4191 68.2876 73.8253 67.3926 72.9315L1.3301 12.7C0.528569 11.9727 0.0487755 10.9568 -0.00373441 9.87576C-0.0562443 8.79471 0.32283 7.73708 1.0501 6.93552C1.1376 6.84102 1.2251 6.75002 1.3196 6.66602L6.7131 1.76602C7.41859 1.12189 8.32784 0.745911 9.28222 0.703693C10.2366 0.661475 11.1755 0.955696 11.9351 1.53502L91.4971 61.875C92.0981 62.3311 92.8145 62.6104 93.5657 62.6814C94.3168 62.7524 95.0729 62.6123 95.7487 62.2769C96.4246 61.9415 96.9934 61.4242 97.3911 60.783C97.7889 60.1419 97.9998 59.4025 98.0001 58.648V58.9C97.9963 60.0488 97.6694 61.1733 97.0566 62.1451C96.4439 63.1168 95.5701 63.8965 94.5351 64.395Z" fill="#007ACC"/>
</svg>
