<svg width="98" height="75" viewBox="0 0 98 75" fill="none" xmlns="http://www.w3.org/2000/svg">
<path d="M94.5351 10.605L74.3541 0.888988C73.2144 0.339481 71.932 0.158144 70.6847 0.370113C69.4373 0.582082 68.2868 1.17686 67.3926 2.07199L1.3301 62.3C0.528569 63.0273 0.0487755 64.0432 -0.00373441 65.1243C-0.0562443 66.2053 0.32283 67.2629 1.0501 68.0645C1.1376 68.159 1.2251 68.25 1.3196 68.334L6.7131 73.234C7.41787 73.8754 8.32505 74.2497 9.27708 74.2919C10.2291 74.3341 11.1658 74.0416 11.9246 73.465L91.4971 13.125C92.0981 12.6689 92.8145 12.3897 93.5657 12.3186C94.3168 12.2476 95.0729 12.3877 95.7487 12.7231C96.4246 13.0585 96.9934 13.5758 97.3911 14.217C97.7889 14.8581 97.9998 15.5975 98.0001 16.352V16.1175C98 14.9656 97.6748 13.8372 97.0618 12.862C96.4488 11.8868 95.573 11.1045 94.5351 10.605Z" fill="#0065A9"/>
</svg>
