<svg width="31" height="98" viewBox="0 0 31 98" fill="none" xmlns="http://www.w3.org/2000/svg">
<path d="M7.35392 97.1145C6.2139 97.6624 4.93187 97.8429 3.68488 97.631C2.43788 97.4191 1.28744 96.8252 0.392417 95.9315C0.895033 96.4275 1.53288 96.7642 2.22602 96.8993C2.91915 97.0345 3.63676 96.962 4.28889 96.6911C4.94103 96.4201 5.4987 95.9627 5.89201 95.3762C6.28533 94.7897 6.4968 94.1002 6.49992 93.394V4.60597C6.50051 3.89648 6.2905 3.20278 5.89651 2.61274C5.50251 2.02271 4.94226 1.56288 4.28672 1.29152C3.63117 1.02016 2.90983 0.949465 2.21408 1.0884C1.51833 1.22734 0.879463 1.56965 0.378418 2.07197C1.27276 1.17717 2.42304 0.582355 3.67017 0.369797C4.9173 0.157239 6.19967 0.337438 7.33992 0.885474L27.5174 10.5875C28.5586 11.0845 29.438 11.8657 30.0542 12.8411C30.6704 13.8165 30.9983 14.9463 30.9999 16.1V81.9C31.0002 83.0528 30.6748 84.1822 30.0611 85.1581C29.4474 86.134 28.5705 86.9167 27.5314 87.416L7.35392 97.1145Z" fill="#1F9CF0"/>
</svg>
