<svg width="32" height="32" viewBox="0 0 32 32" fill="none" xmlns="http://www.w3.org/2000/svg">
<g clip-path="url(#clip0_72186_247)">
<path d="M7.30803 2.65598C7.18996 2.5041 7.04093 2.37908 6.87083 2.28923C6.70073 2.19938 6.51347 2.14674 6.32146 2.13482C6.12946 2.12291 5.93712 2.15198 5.75722 2.22011C5.57732 2.28824 5.41397 2.39387 5.27803 2.52998L3.21003 4.59998C2.24403 5.56798 1.88803 6.93798 2.31003 8.13998C4.06349 13.1142 6.91233 17.6308 10.646 21.356C14.3712 25.0897 18.8878 27.9385 23.862 29.692C25.064 30.114 26.434 29.758 27.402 28.792L29.47 26.724C29.6061 26.588 29.7118 26.4247 29.7799 26.2448C29.848 26.0649 29.8771 25.8725 29.8652 25.6805C29.8533 25.4885 29.8006 25.3013 29.7108 25.1312C29.6209 24.9611 29.4959 24.812 29.344 24.694L24.73 21.106C24.5676 20.9804 24.3789 20.8932 24.178 20.8509C23.9771 20.8087 23.7693 20.8125 23.57 20.862L19.19 21.956C18.6053 22.1011 17.9931 22.0929 17.4125 21.932C16.8319 21.7712 16.3027 21.4633 15.876 21.038L10.964 16.124C10.5384 15.6975 10.2301 15.1684 10.0689 14.5878C9.90771 14.0072 9.89915 13.3948 10.044 12.81L11.14 8.42998C11.1895 8.23075 11.1933 8.02289 11.1511 7.822C11.1088 7.6211 11.0216 7.43238 10.896 7.26998L7.30803 2.65598ZM3.76803 1.02198C4.11802 0.671879 4.53848 0.40024 5.0015 0.225102C5.46453 0.0499638 5.95951 -0.0246668 6.45359 0.00616572C6.94767 0.0369983 7.42953 0.172589 7.86719 0.403933C8.30485 0.635278 8.68828 0.957083 8.99203 1.34798L12.58 5.95998C13.238 6.80598 13.47 7.90798 13.21 8.94798L12.116 13.328C12.0599 13.5549 12.0631 13.7924 12.1255 14.0176C12.1878 14.2429 12.3072 14.4483 12.472 14.614L17.386 19.528C17.5519 19.6932 17.7576 19.8127 17.9833 19.8751C18.2089 19.9374 18.4469 19.9405 18.674 19.884L23.052 18.79C23.5653 18.6624 24.1008 18.6528 24.6184 18.7619C25.1359 18.871 25.6219 19.096 26.04 19.42L30.652 23.008C32.31 24.298 32.462 26.748 30.978 28.23L28.91 30.298C27.43 31.778 25.218 32.428 23.156 31.702C17.8774 29.8471 13.0851 26.8255 9.13603 22.862C5.17277 18.9135 2.15113 14.1219 0.296026 8.84398C-0.427974 6.78398 0.222026 4.56998 1.70203 3.08998L3.76803 1.02198Z" fill="black"/>
</g>
<defs>
<clipPath id="clip0_72186_247">
<rect width="32" height="32" fill="white"/>
</clipPath>
</defs>
</svg>
