<svg width="32" height="32" viewBox="0 0 32 32" fill="none" xmlns="http://www.w3.org/2000/svg">
<g clip-path="url(#clip0_72184_245)">
<path d="M12.652 0.00534277L13.624 0.00134277H18.376L19.3493 0.00534277L20.568 0.0186761L21.1453 0.0280094L21.7027 0.0426761L22.24 0.0613428L22.7573 0.0826761L23.256 0.110676L23.736 0.144009L24.196 0.184009L24.64 0.228009C26.96 0.489343 28.5507 1.04934 29.7507 2.24934C30.9507 3.44934 31.5107 5.03868 31.772 7.36001L31.8173 7.80401L31.856 8.26534L31.8893 8.74534L31.916 9.24268L31.9493 10.0267L31.9653 10.5733L31.9827 11.432L31.9947 12.652L32 13.9587L31.9987 18.376L31.9947 19.3493L31.9813 20.568L31.972 21.1453L31.9573 21.7027L31.9387 22.24L31.9173 22.7573L31.8893 23.256L31.856 23.736L31.816 24.196L31.772 24.64C31.5107 26.96 30.9507 28.5507 29.7507 29.7507C28.5507 30.9507 26.9613 31.5107 24.64 31.772L24.196 31.8173L23.7347 31.856L23.2547 31.8893L22.7573 31.916L21.9733 31.9493L21.4267 31.9653L20.568 31.9827L19.348 31.9947L18.0413 32L13.624 31.9987L12.6507 31.9947L11.432 31.9813L10.8547 31.972L10.2973 31.9573L9.76 31.9387L9.24267 31.9173L8.744 31.8893L8.264 31.856L7.804 31.816L7.36 31.772C5.04 31.5107 3.44933 30.9507 2.24933 29.7507C1.04933 28.5507 0.489333 26.9613 0.228 24.64L0.182667 24.196L0.144 23.7347L0.110667 23.2547L0.084 22.7573L0.0506667 21.9733L0.0346667 21.4267L0.0173333 20.568L0.00533333 19.348L0 18.0413L0.00133333 13.624L0.00533333 12.6507L0.0186667 11.432L0.028 10.8547L0.0426667 10.2973L0.0613333 9.76001L0.0826667 9.24268L0.110667 8.74401L0.144 8.26401L0.184 7.80401L0.228 7.36001C0.489333 5.04001 1.04933 3.44934 2.24933 2.24934C3.44933 1.04934 5.03867 0.489343 7.36 0.228009L7.804 0.182676L8.26533 0.144009L8.74533 0.110676L9.24267 0.0840094L10.0267 0.0506761L10.5733 0.0346761L11.432 0.0173428L12.652 0.00534277ZM9.05333 9.73334H5.4C5.57333 18.0533 9.73333 23.0533 17.0267 23.0533H17.44V18.2933C20.12 18.56 22.1467 20.52 22.96 23.0533H26.7467C25.7067 19.2667 22.9733 17.1733 21.2667 16.3733C22.9733 15.3867 25.3733 12.9867 25.9467 9.73334H22.5067C21.76 12.3733 19.5467 14.7733 17.44 15V9.73334H14V18.96C11.8667 18.4267 9.17333 15.84 9.05333 9.73334Z" fill="black"/>
</g>
<defs>
<clipPath id="clip0_72184_245">
<rect width="32" height="32" fill="white"/>
</clipPath>
</defs>
</svg>
