<svg width="46" height="53" viewBox="0 0 46 53" fill="none" xmlns="http://www.w3.org/2000/svg">
<path d="M12.4919 21.4832V9.16287H23.4613C24.5063 9.16287 25.5135 9.24885 26.4836 9.42115C27.4536 9.59311 28.312 9.90033 29.0583 10.3431C29.8042 10.786 30.4013 11.4007 30.8492 12.1875C31.2968 12.9746 31.5209 13.9829 31.5209 15.2121C31.5209 17.4255 30.8492 19.0241 29.5058 20.0076C28.1628 20.9915 26.4464 21.4832 24.3568 21.4832H12.4919ZM0.775879 0.162109V52.8379H26.5956C28.9837 52.8379 31.3095 52.5429 33.5731 51.9526C35.8367 51.3623 37.8514 50.4525 39.6176 49.223C41.3834 47.9934 42.789 46.407 43.8337 44.4645C44.8787 42.5216 45.4008 40.2222 45.4008 37.5663C45.4008 34.2709 44.5923 31.4553 42.9757 29.1192C41.3587 26.7828 38.9084 25.1474 35.6249 24.2129C38.0129 23.0819 39.8166 21.6307 41.0355 19.8601C42.2541 18.0895 42.8636 15.8765 42.8636 13.2203C42.8636 10.7612 42.4532 8.69559 41.6323 7.02322C40.8114 5.35118 39.6547 4.01084 38.1621 3.00252C36.6699 1.99421 34.879 1.26864 32.7893 0.826164C30.7 0.383347 28.3866 0.162109 25.8493 0.162109H0.775879ZM12.4919 43.8371V29.3771H25.2523C27.7895 29.3771 29.8293 29.9548 31.3717 31.111C32.9138 32.2668 33.6851 34.1971 33.6851 36.9023C33.6851 38.2797 33.4486 39.4107 32.976 40.296C32.5033 41.1813 31.8691 41.8823 31.073 42.3986C30.2772 42.9151 29.3566 43.2839 28.312 43.5054C27.267 43.7263 26.1728 43.8371 25.0285 43.8371H12.4919Z" fill="white"/>
</svg>
