<?xml version="1.0" standalone="no"?>
<!DOCTYPE svg PUBLIC "-//W3C//DTD SVG 20010904//EN"
 "http://www.w3.org/TR/2001/REC-SVG-20010904/DTD/svg10.dtd">
<svg version="1.0" xmlns="http://www.w3.org/2000/svg"
 width="686.000000pt" height="364.000000pt" viewBox="0 0 686.000000 364.000000"
 preserveAspectRatio="xMidYMid meet">

<g transform="translate(0.000000,364.000000) scale(0.100000,-0.100000)"
fill="#000000" stroke="none">
<path d="M1379 2927 c-8 -7 -25 -38 -38 -69 -27 -67 -29 -69 -103 -96 l-57
-21 -76 27 -75 27 -67 -67 -67 -67 13 -48 c8 -27 19 -65 24 -86 9 -30 8 -44
-5 -70 -9 -17 -19 -42 -23 -54 -4 -16 -30 -35 -83 -61 l-77 -38 -3 -83 c-3
-101 7 -120 75 -146 65 -24 85 -45 108 -110 16 -49 17 -61 6 -88 -8 -18 -14
-42 -15 -54 0 -13 -4 -23 -8 -23 -13 0 -8 -44 5 -60 7 -8 38 -39 69 -68 l55
-54 48 22 c75 34 106 36 169 7 51 -24 58 -31 88 -94 l33 -68 58 -3 c61 -3 60
-4 61 53 1 27 4 30 39 33 24 2 45 -2 55 -11 37 -32 63 -39 92 -27 48 20 64 81
31 121 -24 30 -78 31 -116 1 -31 -24 -77 -29 -93 -9 -6 7 -10 38 -9 70 3 56 2
57 -25 57 -91 0 -193 40 -276 109 -50 42 -69 67 -104 138 -42 85 -43 88 -43
187 1 88 4 110 29 171 39 95 113 177 197 220 50 26 152 55 193 55 24 0 26 3
27 50 1 28 2 56 3 63 0 7 19 13 45 15 34 3 49 -2 67 -19 52 -48 132 -3 120 69
-3 19 -13 40 -23 48 -27 20 -77 17 -107 -7 -18 -14 -37 -19 -63 -17 -34 3 -38
6 -40 33 0 17 -2 36 -2 43 -1 16 -90 16 -112 -1z"/>
<path d="M1820 2865 c-19 -20 -22 -32 -17 -65 4 -34 0 -50 -29 -97 -19 -31
-39 -60 -44 -63 -6 -4 -57 -5 -114 -2 l-103 5 -5 -32 c-2 -17 -2 -33 0 -36 3
-3 61 -5 128 -5 141 0 133 -4 194 101 26 44 47 69 59 69 26 0 61 42 61 74 0
36 -41 76 -78 76 -17 0 -37 -10 -52 -25z"/>
<path d="M1953 2598 c-15 -17 -20 -34 -18 -63 1 -29 -7 -56 -32 -102 l-34 -62
-227 -3 c-226 -3 -228 -3 -259 -28 -40 -33 -61 -68 -69 -117 -8 -50 21 -111
68 -145 32 -22 42 -23 255 -28 247 -6 233 -1 276 -81 20 -35 24 -54 20 -85 -5
-36 -2 -43 27 -67 17 -15 37 -27 43 -27 21 0 78 45 83 68 8 30 -19 69 -62 90
-26 12 -45 34 -71 82 -20 36 -38 67 -40 70 -3 3 -70 7 -150 10 -155 5 -172 11
-134 49 20 20 32 21 220 21 183 0 200 -2 224 -20 43 -34 82 -36 112 -6 23 23
26 32 20 64 -13 72 -63 91 -121 47 -32 -25 -34 -25 -243 -25 l-210 0 -15 30
c-14 29 -13 30 7 35 12 3 82 6 155 8 l134 2 29 50 c16 28 34 59 40 71 6 11 25
26 42 32 41 16 71 56 63 85 -16 64 -92 89 -133 45z"/>
<path d="M455 2572 c-46 -16 -85 -49 -109 -93 l-26 -47 0 -591 0 -591 1143 2
1142 3 -1 585 c0 322 -2 594 -5 605 -7 36 -40 80 -77 105 -35 23 -47 25 -188
28 l-151 4 -6 -44 c-3 -24 -9 -52 -13 -61 -6 -16 6 -17 139 -17 128 0 148 -2
168 -19 l24 -19 3 -479 c2 -314 0 -490 -7 -514 -7 -22 -20 -40 -36 -47 -19 -9
-279 -12 -995 -12 -532 0 -976 3 -985 6 -41 16 -42 37 -38 554 3 489 3 495 24
513 18 15 44 17 190 17 166 0 169 0 184 23 14 22 14 28 0 60 l-15 37 -173 -1
c-94 -1 -181 -4 -192 -7z"/>
<path d="M1365 2538 c-16 -6 -37 -17 -46 -24 -8 -8 -20 -14 -25 -14 -17 0
-102 -94 -124 -137 -43 -83 -43 -219 -1 -306 47 -97 165 -181 270 -193 l51 -5
0 50 0 51 -42 0 c-122 1 -228 114 -228 244 0 71 30 145 76 188 39 36 111 68
157 68 l37 0 0 45 0 45 -47 -1 c-27 0 -61 -5 -78 -11z"/>
<path d="M1506 1825 c-4 -14 -4 -30 -1 -35 4 -6 58 -10 121 -10 l114 0 13 -27
c6 -16 22 -43 34 -61 16 -24 20 -42 16 -68 -7 -44 11 -79 47 -94 23 -10 33 -9
54 6 70 45 60 116 -20 144 -17 6 -35 22 -41 38 -18 41 -64 116 -77 124 -6 4
-66 8 -132 8 l-122 0 -6 -25z"/>
<path d="M320 1121 c0 -25 9 -52 26 -77 69 -102 77 -104 504 -104 301 0 350
-2 350 -15 0 -8 -7 -48 -17 -90 l-16 -75 -75 0 c-99 0 -159 -30 -184 -93 -21
-50 -22 -69 -6 -85 9 -9 148 -12 564 -12 472 0 553 2 564 15 19 23 3 89 -28
116 -59 52 -78 59 -161 59 -80 0 -81 0 -87 28 -3 15 -10 43 -14 62 -4 19 -11
47 -14 63 l-6 27 342 0 c189 1 362 5 385 9 84 16 148 83 160 166 l6 45 -1147
0 -1146 0 0 -39z m486 -29 c21 -13 25 -49 9 -66 -13 -13 -40 -16 -141 -16 -69
0 -134 5 -145 10 -21 12 -25 50 -7 68 13 13 265 17 284 4z m145 -2 c11 -6 19
-21 19 -35 0 -45 -81 -63 -115 -25 -17 18 -17 21 -1 45 18 27 61 34 97 15z"/>
</g>
</svg>
